<?xml version="1.0" encoding="utf-8"?>
<!-- Generator: Adobe Illustrator 16.0.0, SVG Export Plug-In . SVG Version: 6.00 Build 0)  -->
<!DOCTYPE svg PUBLIC "-//W3C//DTD SVG 1.1//EN" "http://www.w3.org/Graphics/SVG/1.1/DTD/svg11.dtd">
<svg version="1.1" id="Layer_1" xmlns="http://www.w3.org/2000/svg" xmlns:xlink="http://www.w3.org/1999/xlink" x="0px" y="0px"
	 width="49.2px" height="38.7px" viewBox="0 0 49.2 38.7" enable-background="new 0 0 49.2 38.7" xml:space="preserve">
<g id="_x30_FFoaZ_1_">
	<g>
		<path fill-rule="evenodd" clip-rule="evenodd" fill="#A34602" d="M0,36.602c0.807-2.436,1.624-4.893,3.886-6.41
			c1.387-0.93,2.859-1.752,4.366-2.469c0.393-0.188,1.176,0.051,1.583,0.355c1.894,1.418,4.367,1.43,6.314,0.068
			c0.529-0.369,1.372-0.604,1.989-0.48c2.796,0.553,5.555,1.289,8.346,1.873c0.56,0.117,1.303,0.021,1.785-0.27
			c2.028-1.221,4.038-2.484,5.94-3.887c0.502-0.369,0.685-1.27,0.864-1.965c1.329-5.141,2.615-10.294,3.934-15.438
			c0.117-0.456,0.367-0.877,0.556-1.314c0.183,0.027,0.365,0.055,0.548,0.082c-0.083,1.027-0.076,2.07-0.263,3.078
			c-0.942,5.088-1.949,10.165-2.881,15.255c-0.075,0.408,0.152,0.957,0.408,1.324c1.166,1.672,0.927,3.342-0.748,4.516
			c-2.023,1.422-4.116,2.75-6.084,4.246c-1.247,0.945-2.525,0.953-3.931,0.695c-1.693-0.311-3.395-0.572-5.312-0.893
			c0,1.367,0,2.551,0,3.732c-7.1,0-14.2,0-21.3,0C0,37.992,0,37.297,0,36.602z"/>
		<path fill-rule="evenodd" clip-rule="evenodd" fill="#A34602" d="M49.2,3.901c-0.611,1.057-1.521,1.262-2.714,1.256
			c-11.47-0.05-22.94-0.031-34.41-0.028c-0.989,0-2.289,0.243-2.514-0.982C9.349,2.983,9.72,1.707,9.865,0.484
			c0.021-0.172,0.22-0.323,0.336-0.483c13,0,26,0,39,0C49.2,1.301,49.2,2.601,49.2,3.901z"/>
		<path fill-rule="evenodd" clip-rule="evenodd" fill="#A34602" d="M5.467,24.184c0.278-0.969,0.656-1.922,0.812-2.908
			c0.277-1.76,0.191-3.604,0.67-5.296c0.832-2.939,3.762-4.468,7.285-3.952c2.482,0.364,4.966,2.628,5,5.127
			c0.019,1.389,0.132,2.782,0.285,4.164c0.079,0.719,0.105,1.686,0.557,2.078c1.432,1.24,0.158,1.654-0.58,1.908
			c-1.625,0.559-3.156,1.174-4.611,2.154c-1.342,0.904-2.917,0.631-4.369-0.203c-1.132-0.648-2.347-1.152-3.521-1.73
			C6.32,25.193,5.656,24.842,4.988,24.5C5.148,24.395,5.308,24.289,5.467,24.184z"/>
		<path fill-rule="evenodd" clip-rule="evenodd" fill="#A34602" d="M37.417,31.801c1.263-3.801,4.469-1.887,6.957-2.547
			c0-7.672,0-15.387,0-23.176c0.838,0,1.517,0,2.417,0c0,0.481,0,0.959,0,1.438c0,7.544-0.031,15.09,0.03,22.635
			c0.011,1.328-0.368,1.73-1.689,1.68C42.558,31.732,39.978,31.801,37.417,31.801z"/>
		<path fill-rule="evenodd" clip-rule="evenodd" fill="#A34602" d="M35.317,9.392c0,0.661,0,1.24,0,2.009c-2.204,0-4.332,0-6.459,0
			c-1.945,0-3.895-0.095-5.831,0.03c-1.569,0.102-1.974-0.53-1.607-2.039C25.986,9.392,30.593,9.392,35.317,9.392z"/>
		<path fill-rule="evenodd" clip-rule="evenodd" fill="#A34602" d="M35.296,15.601c-2.096,0-4.13,0-6.164,0
			c-2.05,0-4.1,0.003-6.149-0.001c-1.793-0.004-1.81-0.028-1.507-2.005c4.562,0,9.139,0,13.821,0
			C35.296,14.194,35.296,14.802,35.296,15.601z"/>
		<path fill-rule="evenodd" clip-rule="evenodd" fill="#A34602" d="M14.008,6.099c0,1.63,0,3.203,0,4.889c-0.735,0-1.41,0-2.197,0
			c0-1.552,0-3.17,0-4.889C12.505,6.099,13.215,6.099,14.008,6.099z"/>
	</g>
</g>
</svg>
