<?xml version="1.0" encoding="utf-8"?>
<!-- Generator: Adobe Illustrator 16.0.0, SVG Export Plug-In . SVG Version: 6.00 Build 0)  -->
<!DOCTYPE svg PUBLIC "-//W3C//DTD SVG 1.1//EN" "http://www.w3.org/Graphics/SVG/1.1/DTD/svg11.dtd">
<svg version="1.1" id="Layer_1" xmlns="http://www.w3.org/2000/svg" xmlns:xlink="http://www.w3.org/1999/xlink" x="0px" y="0px"
	 width="58.4px" height="36.8px" viewBox="0 0 58.4 36.8" enable-background="new 0 0 58.4 36.8" xml:space="preserve">
<g id="TlENhQ_1_">
	<g>
		<path fill-rule="evenodd" clip-rule="evenodd" fill="#A34602" d="M0,26.493c0.202-1.11,1.042-1.646,1.925-2.176
			c2.518-1.505,5.04-2.994,7.824-3.982c0.136-0.049,0.294-0.272,0.296-0.418c0.023-1.261,0.024-2.522,0-3.783
			c-0.003-0.148-0.159-0.372-0.297-0.426c-0.944-0.37-1.363-1.036-1.325-2.042c0.057-1.555-0.042-3.126,0.144-4.665
			c0.275-2.279,2.105-3.742,4.427-3.804c1.413-0.038,2.742,0.173,3.812,1.167c1.078,1.001,1.455,2.316,1.498,3.731
			c0.037,1.21,0.003,2.422,0.009,3.633c0.004,0.904-0.359,1.573-1.233,1.899c-0.353,0.131-0.466,0.336-0.458,0.707
			c0.024,1.161,0.018,2.323,0.003,3.484c-0.004,0.318,0.108,0.46,0.412,0.57c0.858,0.31,1.7,0.665,2.664,1.05
			c-0.933,0.489-1.755,0.904-2.562,1.347c-2.314,1.271-4.628,2.542-6.928,3.838c-1.202,0.678-2.083,1.647-2.46,3.002
			c-0.07,0.25-0.188,0.334-0.451,0.333c-2.254-0.01-4.508,0.001-6.763-0.018C0.357,29.94,0.179,29.771,0,29.68
			C0,28.617,0,27.555,0,26.493z"/>
		<path fill-rule="evenodd" clip-rule="evenodd" fill="#A34602" d="M29.236,36.601c-6.027,0-12.055,0-18.081-0.001
			c-0.981,0-1.105-0.113-1.094-1.076c0.015-1.442,0.044-2.884,0.068-4.325c0.017-1.014,0.463-1.787,1.352-2.281
			c2.692-1.497,5.383-2.996,8.091-4.463c1.141-0.617,2.319-1.167,3.491-1.725c0.28-0.133,0.396-0.289,0.394-0.603
			c-0.013-1.824-0.001-3.65-0.014-5.475c-0.001-0.181-0.054-0.428-0.179-0.531c-1.04-0.861-1.459-2.005-1.483-3.29
			c-0.037-1.891-0.036-3.783,0.007-5.673c0.083-3.682,2.345-6.265,6-6.83c2.084-0.322,4.086-0.071,5.896,1.115
			c1.602,1.048,2.647,2.554,2.787,4.397c0.197,2.601,0.121,5.226,0.074,7.838c-0.017,0.936-0.567,1.708-1.261,2.356
			c-0.135,0.126-0.24,0.357-0.242,0.542c-0.018,1.857-0.003,3.716-0.018,5.574c-0.003,0.321,0.123,0.459,0.403,0.584
			c3.93,1.756,7.636,3.927,11.366,6.053c1.13,0.645,1.572,1.61,1.576,2.841c0.005,1.36,0.001,2.722,0,4.082
			c0,0.754-0.134,0.89-0.904,0.89C41.39,36.601,35.313,36.601,29.236,36.601z"/>
		<path fill-rule="evenodd" clip-rule="evenodd" fill="#A34602" d="M38.819,21.41c0.9-0.36,1.725-0.712,2.565-1.014
			c0.323-0.115,0.439-0.258,0.433-0.602c-0.021-1.194,0.004-2.39-0.021-3.584c-0.003-0.167-0.144-0.425-0.284-0.48
			c-0.891-0.348-1.393-0.96-1.372-1.919c0.036-1.654-0.035-3.327,0.195-4.956c0.315-2.235,2.11-3.6,4.386-3.659
			c1.212-0.031,2.37,0.12,3.389,0.819c1.133,0.779,1.725,1.934,1.828,3.236c0.129,1.596,0.055,3.208,0.058,4.813
			c0.001,0.776-0.422,1.284-1.129,1.529c-0.409,0.142-0.512,0.37-0.503,0.772c0.026,1.128,0.021,2.256,0.002,3.385
			c-0.006,0.344,0.078,0.523,0.437,0.647c3.052,1.051,5.772,2.735,8.498,4.408c0.781,0.479,1.13,1.174,1.099,2.089
			c-0.028,0.846-0.013,1.692-0.003,2.538c0.005,0.38-0.15,0.526-0.54,0.524c-2.222-0.012-4.442-0.001-6.664-0.016
			c-0.155-0.001-0.416-0.121-0.448-0.235c-0.453-1.604-1.58-2.605-2.984-3.373c-2.914-1.59-5.827-3.184-8.739-4.776
			C38.978,21.536,38.94,21.501,38.819,21.41z"/>
	</g>
</g>
</svg>
