<?xml version="1.0" encoding="utf-8"?>
<!-- Generator: Adobe Illustrator 16.0.0, SVG Export Plug-In . SVG Version: 6.00 Build 0)  -->
<!DOCTYPE svg PUBLIC "-//W3C//DTD SVG 1.1//EN" "http://www.w3.org/Graphics/SVG/1.1/DTD/svg11.dtd">
<svg version="1.1" id="Layer_1" xmlns="http://www.w3.org/2000/svg" xmlns:xlink="http://www.w3.org/1999/xlink" x="0px" y="0px"
	 width="327px" height="245px" viewBox="0 0 327 245" enable-background="new 0 0 327 245" xml:space="preserve">
<g id="_x39_9E28h_1_">
	<g>
		<path fill="#B05F23" d="M1,16C1,8.18,9.381,1,17,1c94,0,188,0,282,0c12.81,0,16.23,12.413,16.138,24.769
			c-0.346,45.979-0.192,91.963-0.087,137.946c0.018,7.906,0.062,19.014-8.938,19.031c-1.715-0.018-1.973,2.863-1.611,3.859
			c5.339,14.756,10.944,29.415,16.393,44.132c1.495,4.037,2.68,8.188,4.114,12.617c-1.263,0-1.863,0.189-2.206-0.027
			c-14.956-9.457-29.901-18.932-44.822-28.445c-13.4-8.545-26.786-17.112-40.142-25.727c-3.751-2.419-7.701-3.242-12.201-3.235
			c-67.64,0.114-135.281,0.057-202.921,0.104c-9.928,0.007-20.628-4.766-20.628-13.84 M82.851,73.009
			c-10.452,0.078-18.983,8.801-18.841,19.268c0.139,10.256,8.625,18.664,18.892,18.714c10.473,0.051,19.103-8.544,19.09-19.015
			C101.979,81.513,93.319,72.932,82.851,73.009z M138.009,91.741c-0.136,10.472,8.394,19.18,18.854,19.25
			c10.276,0.069,18.863-8.229,19.125-18.479c0.267-10.471-8.157-19.303-18.602-19.503C146.92,72.808,138.145,81.292,138.009,91.741z
			 M246.991,91.831c-0.088-10.458-8.814-18.974-19.286-18.822c-10.249,0.149-18.655,8.654-18.696,18.914
			c-0.041,10.469,8.568,19.092,19.037,19.068C238.518,110.967,247.078,102.309,246.991,91.831z"/>
		<path fill-rule="evenodd" clip-rule="evenodd" fill="#FFFFFF" d="M82.851,73.009c10.468-0.078,19.128,8.504,19.14,18.967
			c0.013,10.471-8.617,19.066-19.09,19.015c-10.266-0.05-18.753-8.458-18.892-18.714C63.868,81.811,72.398,73.087,82.851,73.009z"/>
		<path fill-rule="evenodd" clip-rule="evenodd" fill="#FFFFFF" d="M138.009,91.741c0.135-10.449,8.911-18.933,19.377-18.732
			c10.444,0.201,18.868,9.032,18.602,19.503c-0.262,10.25-8.849,18.547-19.125,18.479
			C146.403,110.921,137.874,102.213,138.009,91.741z"/>
		<path fill-rule="evenodd" clip-rule="evenodd" fill="#FFFFFF" d="M246.991,91.831c0.087,10.478-8.474,19.136-18.945,19.16
			c-10.469,0.024-19.078-8.599-19.037-19.068c0.041-10.26,8.447-18.765,18.696-18.914C238.177,72.857,246.903,81.374,246.991,91.831
			z"/>
	</g>
</g>
</svg>
